<?xml version="1.0" encoding="utf-8"?>
<!-- Generator: Adobe Illustrator 25.2.1, SVG Export Plug-In . SVG Version: 6.00 Build 0)  -->
<svg version="1.1" id="图层_1" xmlns="http://www.w3.org/2000/svg" xmlns:xlink="http://www.w3.org/1999/xlink" x="0px" y="0px"
	 viewBox="0 0 512 512" style="enable-background:new 0 0 512 512;" xml:space="preserve">
<style type="text/css">
	.st0{fill:#053A95;}
</style>
<g transform="translate(0.000000,512.000000) scale(0.100000,-0.100000)">
	<path class="st0" d="M2417,4544c-323-58-578-318-706-718c-63-195-94-388-107-660c-6-134-5-149,9-143c43,16,242,77,271,83l33,6
		l7,111c16,254,67,488,140,643c54,114,95,175,160,237c95,91,208,137,336,137c320,0,541-288,616-807c26-172,26-523,0-658
		c-39-213-155-503-287-722c-28-46-89-136-135-199l-84-116l39-46c21-26,69-76,106-112l68-64l33,39c115,136,266,376,370,590
		c113,232,168,399,211,635c21,114,23,448,4,605c-80,673-365,1083-806,1160C2590,4563,2521,4563,2417,4544z"/>
	<path class="st0" d="M2370,3029c-306-27-646-124-945-268c-499-241-799-585-905-1035c-44-186-49-404-14-559c73-319,326-545,669-597
		c313-48,762,111,1161,411c52,39,94,75,92,79c-2,5-50,57-107,115c-72,74-109,105-117,99c-264-194-396-268-596-335
		c-287-97-503-73-661,71c-110,101-152,228-144,435c13,288,117,519,331,731c238,236,605,412,1041,499c263,52,451,57,689,15
		c66-11,120-19,122-18c13,14,55,306,45,312c-13,8-203,36-306,46C2601,3041,2508,3041,2370,3029z"/>
	<path class="st0" d="M3650,2717c-6-34-23-107-36-162c-14-55-22-101-17-102c34-12,183-106,259-163c303-231,464-542,464-895
		c-1-262-128-438-361-500c-256-69-697,96-1066,396c-359,293-686,729-842,1122c-13,31-27,57-32,57c-9,0-198-62-246-82
		c-18-7-33-18-33-24c0-21,69-175,140-312c82-159,225-375,346-527c111-139,357-385,494-495c333-266,683-426,1011-461
		c260-29,503,54,680,230c176,176,248,409,220,717c-29,326-137,580-354,827c-119,136-332,294-524,390l-91,46L3650,2717z"/>
</g>
</svg>
